<svg xmlns="http://www.w3.org/2000/svg" version="1.1" xmlns:xlink="http://www.w3.org/1999/xlink" xmlns:svgjs="http://svgjs.com/svgjs" width="100" height="100"><svg id="SvgjsSvg1003" viewBox="0 0 100 100" xmlns="http://www.w3.org/2000/svg" version="1.1">
                    <defs> 
                        <linearGradient id="SvgjsLinearGradient1002" x1="0" x2="1" y1="1" y2="0">
                            <stop id="SvgjsStop1001" stop-color="rgba(86.497, 189.799, 25.721, 1)" offset="0%"></stop>
                            <stop id="SvgjsStop1000" stop-color="rgba(0, 248.938, 50.322, 1)" offset="100%"></stop>
                        </linearGradient>
                    </defs>
                <path fill="url(#sw-gradient)" d="M14.2,-26.6C18.5,-22.1,22,-18.5,25.9,-14.2C29.8,-9.9,34.1,-4.9,36.8,1.6C39.6,8.1,40.9,16.2,36.2,19.2C31.5,22.1,20.9,19.9,13.8,21.8C6.8,23.7,3.4,29.6,-2.1,33.3C-7.6,36.9,-15.2,38.1,-21.9,36.1C-28.6,34,-34.4,28.6,-37.7,22.1C-41,15.5,-41.8,7.7,-41.4,0.2C-41,-7.3,-39.4,-14.6,-35.1,-19.3C-30.7,-23.9,-23.4,-26,-17.1,-29.2C-10.8,-32.5,-5.4,-36.9,-0.2,-36.5C5,-36.2,9.9,-31,14.2,-26.6Z" width="100%" height="100%" transform="translate(50 50)" stroke-width="0" style="transition: all 0.3s ease 0s;" stroke="url(#sw-gradient)"></path>
              </svg><style>@media (prefers-color-scheme: light) { :root { filter: none; } }
</style></svg>